<?xml version="1.0" standalone="no"?>
<!DOCTYPE svg PUBLIC "-//W3C//DTD SVG 20010904//EN"
 "http://www.w3.org/TR/2001/REC-SVG-20010904/DTD/svg10.dtd">
<svg version="1.0" xmlns="http://www.w3.org/2000/svg"
 width="500.000000pt" height="500.000000pt" viewBox="0 0 500.000000 500.000000"
 preserveAspectRatio="xMidYMid meet">

<g transform="translate(0.000000,500.000000) scale(0.100000,-0.100000)"
fill="#000000" stroke="none">
<path d="M2245 4882 c-132 -64 -312 -151 -400 -194 -88 -42 -311 -149 -495
-238 -184 -89 -517 -250 -740 -357 -224 -108 -415 -206 -427 -220 l-23 -24 0
-1349 0 -1349 22 -24 c13 -14 142 -82 288 -152 146 -70 384 -185 530 -255 146
-70 405 -195 575 -277 699 -339 916 -443 925 -443 10 0 75 31 1055 505 259
125 643 310 855 412 212 102 395 197 408 210 l22 24 0 1349 0 1349 -22 25
c-13 14 -201 110 -443 227 -231 111 -625 301 -875 422 -882 426 -990 477
-1002 476 -7 0 -121 -53 -253 -117z m587 -198 c178 -86 431 -208 563 -271 132
-64 344 -166 470 -227 127 -62 341 -166 478 -231 136 -65 247 -122 247 -125 0
-3 -44 -27 -97 -52 -54 -25 -188 -89 -298 -143 l-200 -96 -480 231 c-264 128
-664 321 -890 430 -225 109 -482 232 -569 274 -88 42 -157 78 -155 80 9 9 585
285 596 285 6 1 157 -69 335 -155z m-757 -388 c187 -89 405 -195 485 -233 358
-174 522 -253 525 -253 1 0 141 -68 311 -151 170 -83 334 -163 364 -177 l55
-25 -209 -102 -209 -102 -201 97 c-111 54 -299 145 -419 204 -120 58 -220 106
-222 106 -1 0 -123 59 -271 131 -315 154 -543 264 -860 414 l-117 56 99 47
c54 26 146 70 204 99 58 28 110 52 115 52 6 1 164 -73 350 -163z m-454 -354
c1179 -568 1403 -677 1549 -750 l155 -77 5 -456 c5 -499 4 -489 65 -489 36 0
564 248 603 283 l22 20 0 457 0 456 331 160 c183 87 336 161 340 162 5 2 9
-554 9 -1243 l0 -1246 -212 -103 c-1352 -655 -1900 -918 -1903 -914 -7 7 -7
104 -6 1265 l1 1221 258 127 c141 69 263 133 270 142 33 44 -2 113 -57 113
-17 0 -138 -53 -286 -125 -142 -69 -261 -125 -266 -125 -5 0 -54 23 -109 50
-114 57 -149 62 -179 24 -47 -60 -24 -93 105 -154 l104 -49 0 -1245 c0 -686
-2 -1246 -4 -1246 -4 0 -418 199 -761 365 -99 48 -234 113 -300 144 -66 32
-223 108 -350 169 -126 62 -336 163 -465 225 l-235 113 -3 1235 c-1 679 0
1239 2 1246 3 8 72 -20 198 -81 106 -52 301 -145 433 -209 132 -63 408 -197
614 -296 245 -118 385 -181 406 -181 39 0 68 30 68 70 0 42 -18 58 -108 100
-44 21 -309 148 -590 284 -280 135 -601 290 -712 344 -111 53 -202 99 -202
102 -1 5 694 346 710 349 3 1 228 -106 500 -237z m2234 -1340 c-3 -7 -10 -10
-16 -6 -8 4 -9 3 -5 -5 6 -9 0 -10 -21 -6 -23 5 -25 4 -11 -5 10 -6 25 -10 34
-8 9 2 19 -2 21 -9 4 -10 -114 -75 -142 -79 -5 0 -18 -2 -28 -2 -10 -1 -16 -6
-13 -10 5 -8 -49 -32 -68 -31 -5 0 -12 -4 -15 -9 -9 -15 -74 -39 -93 -34 -17
3 -18 28 -18 360 l1 357 74 36 c41 20 72 33 70 28 -3 -4 -1 -10 5 -14 9 -6 15
8 11 29 -1 5 5 6 14 3 8 -4 15 -2 15 4 0 6 10 8 23 4 17 -5 19 -4 7 4 -11 8 4
19 70 50 l85 40 3 -342 c1 -188 0 -348 -3 -355z"/>
<path d="M512 2005 c-34 -15 -48 -48 -38 -91 7 -27 0 -23 535 -280 84 -41 162
-74 173 -74 53 0 88 52 68 101 -13 29 -76 63 -480 254 -238 112 -220 106 -258
90z"/>
<path d="M495 1645 c-32 -31 -33 -75 -2 -102 29 -27 356 -183 383 -183 59 0
94 74 57 118 -20 24 -368 192 -396 192 -10 0 -29 -11 -42 -25z"/>
<path d="M3785 3250 c-3 -6 1 -7 9 -4 18 7 21 14 7 14 -6 0 -13 -4 -16 -10z"/>
<path d="M3731 3231 c-10 -6 -11 -13 -2 -29 9 -17 8 -23 -6 -31 -10 -6 -13
-10 -8 -10 17 0 40 23 41 41 1 11 -4 15 -15 10 -14 -5 -14 -4 -2 11 15 19 13
21 -8 8z"/>
<path d="M3496 3112 c-3 -5 11 -9 31 -10 40 -2 41 2 1 12 -15 3 -29 2 -32 -2z"/>
<path d="M3501 3090 c-9 -5 -4 -7 13 -7 29 0 32 2 13 10 -8 3 -20 2 -26 -3z"/>
<path d="M3575 3090 c-3 -6 1 -7 9 -4 18 7 21 14 7 14 -6 0 -13 -4 -16 -10z"/>
<path d="M3760 2576 c0 -2 7 -7 16 -10 8 -3 12 -2 9 4 -6 10 -25 14 -25 6z"/>
<path d="M3818 2553 c7 -3 16 -2 19 1 4 3 -2 6 -13 5 -11 0 -14 -3 -6 -6z"/>
<path d="M3755 2520 c-3 -5 -1 -10 4 -10 6 0 11 5 11 10 0 6 -2 10 -4 10 -3 0
-8 -4 -11 -10z"/>
<path d="M3648 2513 c7 -3 16 -2 19 1 4 3 -2 6 -13 5 -11 0 -14 -3 -6 -6z"/>
<path d="M3681 2507 c-8 -10 -7 -14 2 -14 8 0 14 6 14 14 0 7 -1 13 -2 13 -2
0 -8 -6 -14 -13z"/>
<path d="M3715 2511 c-3 -5 -2 -12 3 -15 5 -3 9 1 9 9 0 17 -3 19 -12 6z"/>
<path d="M3608 2503 c10 -4 10 -8 1 -19 -9 -12 -6 -12 22 -2 29 10 31 12 13
19 -10 4 -26 8 -34 8 -11 -1 -11 -2 -2 -6z"/>
<path d="M3515 2420 c-3 -6 1 -7 9 -4 18 7 21 14 7 14 -6 0 -13 -4 -16 -10z"/>
</g>
</svg>
